<svg id="Слой_1" data-name="Слой 1" xmlns="http://www.w3.org/2000/svg" viewBox="0 0 212 61"><defs><style>.cls-1{fill:#fff;}.cls-2{fill:#fdad54;}.cls-3,.cls-4{fill:none;stroke:#1e1e1e;stroke-miterlimit:10;}.cls-3{stroke-width:2px;}.cls-5{fill:#1e1e1e;}</style></defs><title>Browns Mills SRW niz</title><path class="cls-1" d="M63.52,25.86v-.43l1.19-.09V17.68l-1.58-.05v-.41L66.48,17v8.35l1.19.09v.43Zm3.06-11.73a1,1,0,0,1-.31.76,1,1,0,0,1-.76.32,1,1,0,0,1-1.07-1.07,1.07,1.07,0,0,1,.31-.77A1,1,0,0,1,65.5,13a1,1,0,0,1,.76.32A1.06,1.06,0,0,1,66.58,14.13Z"/><path class="cls-1" d="M71.77,19A3.16,3.16,0,0,1,75,16.89a2.57,2.57,0,0,1,2.74,2.81q0,2.32-.14,5.63l1.24.09v.43h-4v-.43l1-.07q.14-4.07.14-4.66c0-.4,0-.7,0-.91a6.83,6.83,0,0,0-.1-.77,2.15,2.15,0,0,0-.24-.73,1.34,1.34,0,0,0-1.24-.67,2.29,2.29,0,0,0-1.89,1,3.31,3.31,0,0,0-.74,2.07v4.7l1.35.09v.43h-4.3v-.43L70,25.33V17.72l-1.53-.07v-.41L71.7,17,71.61,19Z"/><path class="cls-1" d="M68.55,35.43a5.53,5.53,0,0,1,3.16.7,2.31,2.31,0,0,1,1,2A3,3,0,0,1,72,40.19a3.06,3.06,0,0,1-2,.91,5,5,0,0,1,2.54,1,3,3,0,0,1-.58,4.52,7,7,0,0,1-3.55.8H63.67V47L65,46.86V36l-1.57-.16v-.43Zm-1.64.49v5h.76q3,0,3-2.77a2.17,2.17,0,0,0-.62-1.74,3.07,3.07,0,0,0-2-.53Zm2.39,5.71A6.48,6.48,0,0,0,68,41.48l-1.06,0V47a3.07,3.07,0,0,0,.82.13,8.56,8.56,0,0,0,.88-.05,5.16,5.16,0,0,0,1.19-.3,2.23,2.23,0,0,0,1.13-.94,3.14,3.14,0,0,0,.45-1.73A2.29,2.29,0,0,0,69.3,41.62Z"/><path class="cls-1" d="M80.48,38.46a1.12,1.12,0,0,1,.74.23.76.76,0,0,1,.27.62.87.87,0,0,1-.52.9,1.71,1.71,0,0,0-1-.23,2.46,2.46,0,0,0-1.45.49,1.39,1.39,0,0,0-.69,1.13v5.35L79.4,47v.43H74.83V47L76,47V39.27l-1.42-.07v-.41l3.19-.2-.11,2.21h.07a3.49,3.49,0,0,1,1.13-1.66A2.54,2.54,0,0,1,80.48,38.46Z"/><path class="cls-1" d="M91.33,43.06a4.65,4.65,0,0,1-1.21,3.29,4.81,4.81,0,0,1-6.57,0,5.1,5.1,0,0,1,0-6.59,4.81,4.81,0,0,1,6.57,0A4.65,4.65,0,0,1,91.33,43.06Zm-7,0q0,4.16,2.53,4.16t2.53-4.16A6.6,6.6,0,0,0,88.8,40a2.32,2.32,0,0,0-3.9,0A6.5,6.5,0,0,0,84.32,43.06Z"/><path class="cls-1" d="M92,38.67h3.71v.41l-1.19.14,2.56,6.3,1.58-4.19-.88-2.11L97,39.14v-.47h3.64v.41l-1.21.14,2.57,6.3,2.23-6-1.17-.34v-.47h3v.47l-1.1.34-3.06,8h-.72L99,42.25,97,47.46h-.72l-3.47-8.23L92,39.1Z"/><path class="cls-1" d="M109.82,40.58a3.16,3.16,0,0,1,3.26-2.09,2.57,2.57,0,0,1,2.74,2.81q0,2.32-.14,5.63l1.24.09v.43h-4V47l1-.07q.14-4.07.14-4.66c0-.4,0-.7,0-.91a6.83,6.83,0,0,0-.1-.77,2.15,2.15,0,0,0-.24-.73,1.34,1.34,0,0,0-1.24-.67,2.29,2.29,0,0,0-1.89,1,3.31,3.31,0,0,0-.74,2.07v4.7l1.35.09v.43h-4.3V47l1.19-.09V39.32l-1.53-.07v-.41l3.22-.22-.09,1.94Z"/><path class="cls-1" d="M121.39,47.2a2,2,0,0,0,1.25-.4,1.56,1.56,0,0,0,.53-1.33,1.25,1.25,0,0,0-.57-1,6.34,6.34,0,0,0-1.41-.75l-1.14-.47a7,7,0,0,1-.78-.44,1.94,1.94,0,0,1-.88-1.71,2.32,2.32,0,0,1,.88-1.85,3.92,3.92,0,0,1,2.57-.74,3.42,3.42,0,0,1,1.85.48,1.36,1.36,0,0,1,.76,1.14.93.93,0,0,1-.5.92,1.25,1.25,0,0,1-.53.13,1.29,1.29,0,0,1-.51-.11,3.25,3.25,0,0,0,.07-.7,1.74,1.74,0,0,0-.18-.76,1.17,1.17,0,0,0-1.17-.65,1.74,1.74,0,0,0-1.31.47,1.69,1.69,0,0,0-.45,1.22,1.25,1.25,0,0,0,.65,1.15,6,6,0,0,0,1.21.56l1,.35a6.06,6.06,0,0,1,.69.33,2.27,2.27,0,0,1,.65.49,2.36,2.36,0,0,1,.56,1.66,2.18,2.18,0,0,1-.94,1.77,3.61,3.61,0,0,1-2.29.73,6.25,6.25,0,0,1-2.37-.41q-1-.41-1-1.21t1.1-1A2.17,2.17,0,0,0,121.39,47.2Z"/><path class="cls-1" d="M145.44,35.43v.41l-1.53.18.4,10.89,1.39.11v.43h-4.57v-.38l1.37-.16L142,37.63l-3.62,9.83h-1l-4.32-9.74-.34,8.86,1.51.45v.43h-3.69V47l1.49-.52L132.46,36l-1.53-.18v-.41h3.19l4.28,10,3.69-10Z"/><path class="cls-1" d="M147.06,47.46V47l1.19-.09V39.28l-1.58-.05v-.41l3.35-.23v8.35l1.19.09v.43Zm3.06-11.73a1,1,0,0,1-.31.76,1,1,0,0,1-.76.32A1,1,0,0,1,148,35.73a1.07,1.07,0,0,1,.31-.77,1,1,0,0,1,.76-.31,1,1,0,0,1,.76.32A1.06,1.06,0,0,1,150.12,35.73Z"/><path class="cls-1" d="M156.26,47.46h-4.14V47l1.19-.09V34.53l-1.6-.07V34l3.37-.38V46.93l1.19.09Z"/><path class="cls-1" d="M161.37,47.46h-4.14V47l1.19-.09V34.53l-1.6-.07V34l3.37-.38V46.93l1.19.09Z"/><path class="cls-1" d="M165.93,47.2a2,2,0,0,0,1.25-.4,1.56,1.56,0,0,0,.53-1.33,1.25,1.25,0,0,0-.57-1,6.34,6.34,0,0,0-1.41-.75l-1.14-.47a7,7,0,0,1-.78-.44,1.94,1.94,0,0,1-.88-1.71,2.32,2.32,0,0,1,.88-1.85,3.92,3.92,0,0,1,2.57-.74,3.42,3.42,0,0,1,1.85.48,1.36,1.36,0,0,1,.76,1.14.93.93,0,0,1-.5.92,1.25,1.25,0,0,1-.53.13,1.29,1.29,0,0,1-.51-.11,3.25,3.25,0,0,0,.07-.7,1.74,1.74,0,0,0-.18-.76,1.17,1.17,0,0,0-1.17-.65,1.74,1.74,0,0,0-1.31.47,1.69,1.69,0,0,0-.45,1.22,1.25,1.25,0,0,0,.65,1.15,6,6,0,0,0,1.21.56l1,.35a6.06,6.06,0,0,1,.69.33,2.27,2.27,0,0,1,.65.49,2.36,2.36,0,0,1,.56,1.66,2.18,2.18,0,0,1-.94,1.77,3.61,3.61,0,0,1-2.29.73,6.25,6.25,0,0,1-2.37-.41q-1-.41-1-1.21t1.1-1A2.17,2.17,0,0,0,165.93,47.2Z"/><rect class="cls-2" x="0.04" y="0.04" width="58.35" height="60.95"/><polyline class="cls-3" points="12.22 22.93 30.72 4.43 49.22 22.93"/><rect class="cls-4" x="27.01" y="15.55" width="6.94" height="6.94"/><rect class="cls-4" x="27.01" y="46.84" width="6.94" height="10.17"/><polyline class="cls-4" points="46.14 46.93 46.14 56.99 14.82 56.99 14.82 46.93"/><polygon class="cls-4" points="42.14 15.84 38.18 11.99 38.18 5.05 42.14 5.05 42.14 15.84"/><path class="cls-5" d="M17.92,29a6,6,0,0,0-2-.34,2.9,2.9,0,0,0-1.8.58A2,2,0,0,0,13.35,31a1.9,1.9,0,0,0,1,1.71,6.82,6.82,0,0,0,.86.47l1,.38.87.33.69.31a4.17,4.17,0,0,1,.68.37c.15.11.33.26.55.45a2.31,2.31,0,0,1,.49.58,3.34,3.34,0,0,1,.4,1.6,3,3,0,0,1-1.24,2.5,5.07,5.07,0,0,1-3.22,1,7.83,7.83,0,0,1-2.83-.5,2.83,2.83,0,0,1-1.06-.65,1.31,1.31,0,0,1-.41-1q0-.88,1.28-1.21a3.7,3.7,0,0,0,.76,1.75,2.78,2.78,0,0,0,1.16.88,4.41,4.41,0,0,0,1.48.22,2.74,2.74,0,0,0,1.65-.57,2.15,2.15,0,0,0,.77-1.86,1.9,1.9,0,0,0-.9-1.62,9.85,9.85,0,0,0-1.77-.92l-1.41-.58a8.38,8.38,0,0,1-.93-.49,3.18,3.18,0,0,1-.84-.66,3.2,3.2,0,0,1,.5-4.5,5.63,5.63,0,0,1,3.33-.86,18,18,0,0,1,3,.29v2.65h-.56Z"/><path class="cls-5" d="M24.62,28.38l2.05-.05q4.09,0,4.09,3.08a2.87,2.87,0,0,1-.91,2.19,3.29,3.29,0,0,1-2.35.85l-.45,0v0a3.82,3.82,0,0,1,2.66,1.25,5,5,0,0,1,.73,3q0,1.26.47,1.46a1.08,1.08,0,0,0,.6.14,3,3,0,0,0,1-.23v.45a5.21,5.21,0,0,1-1.75.34,2,2,0,0,1-2.18-1.51,4.66,4.66,0,0,1-.12-1.12q0-.72-.06-1.28a4.6,4.6,0,0,0-.25-1.12q-.45-1.21-2.48-1.21h-1v5.29L26,40v.4H21.45v-.38l1.35-.14V29l-1.57-.18v-.47q1.15.05,2.47.05Zm0,5.72h.9q3.22,0,3.22-2.7a2.58,2.58,0,0,0-.63-1.94,2.84,2.84,0,0,0-2-.6q-.54,0-1.48.07Z"/><path class="cls-5" d="M31.64,28.41H36.5v.38L35.06,29l3.29,9.23,2.59-6.55-1-2.68-1.39-.16v-.38h4.86v.38L42,29l3.29,9.23,3.42-8.87-1.58-.47v-.43h3.76v.43l-1.37.49L45.12,40.55h-.81l-3-7.88-3.11,7.88H37.4L33,29l-1.39-.16Z"/></svg>