<svg id="Слой_1" data-name="Слой 1" xmlns="http://www.w3.org/2000/svg"><defs><style>.cls-1{fill:#fdad54;}.cls-2{fill:#1e1e1e;}.cls-3,.cls-4,.cls-5{fill:none;stroke:#1e1e1e;stroke-miterlimit:10;}.cls-3{stroke-width:2px;}.cls-5{stroke-width:0.76px;}</style></defs><title>Browns Mills SRW verh</title><rect class="cls-1" width="48.25" height="80"/><path class="cls-2" d="M12.7,34.17a6,6,0,0,0-2-.34,2.9,2.9,0,0,0-1.8.58,2,2,0,0,0-.77,1.74,1.9,1.9,0,0,0,1,1.71,6.87,6.87,0,0,0,.86.47q.33.15,1,.38l.87.33.69.31a4.17,4.17,0,0,1,.68.37c.15.11.33.26.55.45a2.33,2.33,0,0,1,.49.58,3.34,3.34,0,0,1,.4,1.6,3,3,0,0,1-1.24,2.5,5.08,5.08,0,0,1-3.22,1,7.83,7.83,0,0,1-2.83-.5,2.83,2.83,0,0,1-1.06-.65,1.31,1.31,0,0,1-.41-1q0-.88,1.28-1.21a3.7,3.7,0,0,0,.76,1.75A2.78,2.78,0,0,0,9,45.13a4.41,4.41,0,0,0,1.48.22,2.74,2.74,0,0,0,1.65-.57,2.15,2.15,0,0,0,.77-1.86,1.9,1.9,0,0,0-.9-1.62,9.85,9.85,0,0,0-1.77-.92l-1.41-.58a8.45,8.45,0,0,1-.93-.49,3.19,3.19,0,0,1-.84-.66,3.2,3.2,0,0,1,.5-4.5,5.63,5.63,0,0,1,3.33-.86,18,18,0,0,1,3,.29v2.65h-.56Z"/><path class="cls-2" d="M19.4,33.54l2.05-.05q4.09,0,4.09,3.08a2.87,2.87,0,0,1-.91,2.19,3.29,3.29,0,0,1-2.35.86l-.45,0v0a3.82,3.82,0,0,1,2.66,1.25,5,5,0,0,1,.73,3q0,1.26.47,1.46a1.08,1.08,0,0,0,.6.14,3,3,0,0,0,1-.23v.45a5.2,5.2,0,0,1-1.75.34,2,2,0,0,1-2.18-1.51,4.66,4.66,0,0,1-.12-1.12q0-.72-.06-1.28A4.6,4.6,0,0,0,22.93,41q-.45-1.21-2.48-1.21h-1v5.29l1.39.13v.4H16.23v-.38l1.35-.14V34.13L16,34v-.47q1.15.05,2.47.05Zm0,5.72h.9q3.22,0,3.22-2.7a2.58,2.58,0,0,0-.63-1.94,2.84,2.84,0,0,0-2-.6q-.54,0-1.48.07Z"/><path class="cls-2" d="M26.42,33.57h4.86V34l-1.44.16,3.29,9.23,2.59-6.55-1-2.68L33.33,34v-.38h4.86V34l-1.44.16L40,43.35l3.42-8.87L41.88,34v-.43h3.76V34l-1.37.49L39.9,45.7h-.81l-3-7.88L33,45.7h-.81L27.8,34.11,26.42,34Z"/><path class="cls-2" d="M57.59,24v-.43l1.19-.09V15.82l-1.58-.05v-.41l3.35-.23v8.35l1.19.09V24Zm3.06-11.73a1,1,0,0,1-.31.76,1,1,0,0,1-.76.32,1,1,0,0,1-1.07-1.07,1.07,1.07,0,0,1,.31-.77,1,1,0,0,1,.76-.31,1,1,0,0,1,.76.32A1.06,1.06,0,0,1,60.66,12.27Z"/><path class="cls-2" d="M65.84,17.12A3.16,3.16,0,0,1,69.1,15a2.57,2.57,0,0,1,2.74,2.81q0,2.32-.14,5.63l1.24.09V24H69v-.43l1-.07q.14-4.07.14-4.66c0-.4,0-.7,0-.91a6.83,6.83,0,0,0-.1-.77,2.15,2.15,0,0,0-.24-.73,1.34,1.34,0,0,0-1.24-.67,2.29,2.29,0,0,0-1.89,1,3.32,3.32,0,0,0-.74,2.07v4.7l1.35.09V24h-4.3v-.43l1.19-.09V15.86l-1.53-.07v-.41l3.22-.22-.09,1.94Z"/><path class="cls-2" d="M62.62,33.57a5.53,5.53,0,0,1,3.16.7,2.31,2.31,0,0,1,1,2,3,3,0,0,1-.69,2.06,3.06,3.06,0,0,1-2,.91,5,5,0,0,1,2.54,1A3,3,0,0,1,66,44.8a7,7,0,0,1-3.55.8H57.74v-.43L59.09,45V34.17L57.52,34v-.43ZM61,34.06v5h.76q3,0,3-2.77a2.17,2.17,0,0,0-.62-1.74,3.06,3.06,0,0,0-2-.53Zm2.39,5.71A6.48,6.48,0,0,0,62,39.62l-1.06,0v5.45a3.07,3.07,0,0,0,.82.13,8.58,8.58,0,0,0,.88-.05,5.13,5.13,0,0,0,1.19-.3A2.23,2.23,0,0,0,65,43.92a3.14,3.14,0,0,0,.45-1.73A2.29,2.29,0,0,0,63.37,39.76Z"/><path class="cls-2" d="M74.55,36.6a1.12,1.12,0,0,1,.74.22.76.76,0,0,1,.27.62.87.87,0,0,1-.52.9,1.71,1.71,0,0,0-1-.23,2.46,2.46,0,0,0-1.45.5,1.39,1.39,0,0,0-.69,1.13v5.35l1.62.09v.43H68.9v-.43l1.19-.07V37.41l-1.42-.07v-.41l3.19-.2-.11,2.21h.07a3.49,3.49,0,0,1,1.13-1.66A2.53,2.53,0,0,1,74.55,36.6Z"/><path class="cls-2" d="M85.41,41.2A4.64,4.64,0,0,1,84.2,44.5a4.81,4.81,0,0,1-6.57,0,5.1,5.1,0,0,1,0-6.59,4.81,4.81,0,0,1,6.57,0A4.65,4.65,0,0,1,85.41,41.2Zm-7,0q0,4.16,2.53,4.16t2.53-4.16a6.6,6.6,0,0,0-.58-3.08,2.32,2.32,0,0,0-3.9,0A6.5,6.5,0,0,0,78.39,41.2Z"/><path class="cls-2" d="M86.05,36.81h3.71v.41l-1.19.14,2.56,6.3,1.58-4.19-.88-2.11-.74-.09v-.47h3.64v.41l-1.21.14,2.57,6.3,2.23-6-1.17-.34v-.47h3v.47l-1.1.34L96,45.6H95.3l-2.2-5.2-2.05,5.2h-.72l-3.47-8.23-.81-.13Z"/><path class="cls-2" d="M103.89,38.72a3.16,3.16,0,0,1,3.26-2.09,2.57,2.57,0,0,1,2.74,2.81q0,2.32-.14,5.63l1.24.09v.43h-4v-.43l1-.07q.14-4.07.14-4.66c0-.4,0-.7,0-.91a6.84,6.84,0,0,0-.1-.77,2.14,2.14,0,0,0-.24-.73,1.34,1.34,0,0,0-1.24-.67,2.29,2.29,0,0,0-1.89,1,3.31,3.31,0,0,0-.74,2.07v4.7l1.35.09v.43h-4.3v-.43l1.19-.09V37.46l-1.53-.07V37l3.22-.22-.09,1.94Z"/><path class="cls-2" d="M115.46,45.34a2,2,0,0,0,1.25-.4,1.56,1.56,0,0,0,.53-1.33,1.25,1.25,0,0,0-.57-1,6.38,6.38,0,0,0-1.41-.75l-1.14-.47a6.87,6.87,0,0,1-.78-.44,1.93,1.93,0,0,1-.88-1.71,2.32,2.32,0,0,1,.88-1.85,3.92,3.92,0,0,1,2.57-.74,3.42,3.42,0,0,1,1.85.48,1.36,1.36,0,0,1,.76,1.14.93.93,0,0,1-.5.92,1.25,1.25,0,0,1-.53.13,1.3,1.3,0,0,1-.51-.11,3.25,3.25,0,0,0,.07-.7,1.74,1.74,0,0,0-.18-.76,1.17,1.17,0,0,0-1.17-.65,1.74,1.74,0,0,0-1.31.47,1.69,1.69,0,0,0-.45,1.22,1.25,1.25,0,0,0,.65,1.15,6,6,0,0,0,1.21.56l1,.35a6.14,6.14,0,0,1,.69.33,2.28,2.28,0,0,1,.65.49,2.36,2.36,0,0,1,.56,1.66,2.18,2.18,0,0,1-.94,1.77,3.61,3.61,0,0,1-2.29.73,6.26,6.26,0,0,1-2.37-.41q-1-.41-1-1.21t1.1-1A2.17,2.17,0,0,0,115.46,45.34Z"/><path class="cls-2" d="M72.32,55.17v.41l-1.53.18.4,10.89,1.39.11v.43H68v-.38l1.37-.16-.47-9.29L65.28,67.2h-1L60,57.46l-.34,8.86,1.51.45v.43H57.49v-.43L59,66.24l.36-10.48-1.53-.18v-.41H61l4.28,10,3.69-10Z"/><path class="cls-2" d="M73.94,67.2v-.43l1.19-.09V59L73.54,59v-.41l3.35-.23v8.35l1.19.09v.43ZM77,55.47a1,1,0,0,1-.31.76,1,1,0,0,1-.76.32,1,1,0,0,1-1.07-1.07,1.07,1.07,0,0,1,.31-.77,1,1,0,0,1,.76-.31,1,1,0,0,1,.76.32A1.06,1.06,0,0,1,77,55.47Z"/><path class="cls-2" d="M83.14,67.2H79v-.43l1.19-.09V54.27l-1.6-.07v-.41l3.37-.38V66.67l1.19.09Z"/><path class="cls-2" d="M88.25,67.2H84.11v-.43l1.19-.09V54.27l-1.6-.07v-.41l3.37-.38V66.67l1.19.09Z"/><path class="cls-2" d="M92.8,66.94a2,2,0,0,0,1.25-.4,1.56,1.56,0,0,0,.53-1.33,1.25,1.25,0,0,0-.57-1,6.3,6.3,0,0,0-1.41-.75L91.46,63a7.19,7.19,0,0,1-.78-.44,1.94,1.94,0,0,1-.88-1.71A2.32,2.32,0,0,1,90.68,59a3.92,3.92,0,0,1,2.57-.74,3.43,3.43,0,0,1,1.85.48,1.36,1.36,0,0,1,.76,1.14.93.93,0,0,1-.5.92,1.25,1.25,0,0,1-.53.13,1.29,1.29,0,0,1-.51-.11,3.24,3.24,0,0,0,.07-.7,1.74,1.74,0,0,0-.18-.76A1.17,1.17,0,0,0,93,58.66a1.74,1.74,0,0,0-1.31.47,1.69,1.69,0,0,0-.45,1.22,1.25,1.25,0,0,0,.65,1.15,6,6,0,0,0,1.21.56l1,.35a6,6,0,0,1,.69.33,2.26,2.26,0,0,1,.65.49A2.36,2.36,0,0,1,96,64.89a2.18,2.18,0,0,1-.94,1.77,3.61,3.61,0,0,1-2.29.73A6.24,6.24,0,0,1,90.42,67q-1-.41-1-1.21t1.1-1A2.17,2.17,0,0,0,92.8,66.94Z"/><polyline class="cls-3" points="7.08 26.75 25.58 8.25 44.08 26.75"/><rect class="cls-4" x="21.88" y="19.38" width="6.94" height="6.94"/><rect class="cls-4" x="21.88" y="52.29" width="6.94" height="12.54"/><polyline class="cls-4" points="41 52.13 41 64.81 9.69 64.81 9.69 52.13"/><polygon class="cls-5" points="37 19.67 33.04 15.81 33.04 8.88 37 8.88 37 19.67"/></svg>