<svg id="Слой_1" data-name="Слой 1" xmlns="http://www.w3.org/2000/svg" viewBox="0 0 134.83 20.42"><defs><style>.cls-1{fill:#fdad54;}.cls-2{fill:#1e1e1e;}</style></defs><title>Browns Mills SRW LEGACY</title><rect class="cls-1" x="76.46" y="0.33" width="57.67" height="19.75" transform="translate(210.58 20.42) rotate(180)"/><path class="cls-2" d="M7.7,6.92a2.57,2.57,0,0,1-.34,1.34,2.22,2.22,0,0,1-.91.85,5.77,5.77,0,0,1-2.58.53c-.24,0-.57,0-1-.06v3.93L4,13.59v.34H.41v-.34l1-.07V5L.24,4.89V4.55H2.86l1.67,0Q7.7,4.51,7.7,6.92ZM3.52,9.21a2.84,2.84,0,0,0,2-.62,2.12,2.12,0,0,0,.69-1.66,2.07,2.07,0,0,0-.49-1.53,2.16,2.16,0,0,0-1.57-.48q-.48,0-1.2.06v4.2A4.84,4.84,0,0,0,3.52,9.21Z"/><path class="cls-2" d="M15.4,10.51a3.62,3.62,0,0,1-.94,2.56,3.32,3.32,0,0,1-2.55,1,3.32,3.32,0,0,1-2.55-1,3.61,3.61,0,0,1-.94-2.56A3.61,3.61,0,0,1,9.36,8a3.32,3.32,0,0,1,2.55-1,3.32,3.32,0,0,1,2.55,1A3.61,3.61,0,0,1,15.4,10.51Zm-5.46,0q0,3.23,2,3.23t2-3.23a5.12,5.12,0,0,0-.45-2.39,1.58,1.58,0,0,0-1.51-.83,1.59,1.59,0,0,0-1.52.83A5.05,5.05,0,0,0,9.94,10.51Z"/><path class="cls-2" d="M15.91,7.1h2.88v.32l-.92.11,2,4.9,1.23-3.26L20.4,7.53l-.57-.07V7.1h2.83v.32l-.94.11,2,4.9,1.74-4.7-.91-.27V7.1H26.9v.36L26,7.73l-2.38,6.2H23.1l-1.71-4-1.6,4h-.56l-2.7-6.4-.63-.1Z"/><path class="cls-2" d="M28.28,13.1a3.72,3.72,0,0,1-.88-2.59,3.6,3.6,0,0,1,.93-2.59,3.1,3.1,0,0,1,2.34-1,3.05,3.05,0,0,1,2.11.64,2.27,2.27,0,0,1,.7,1.77,4.12,4.12,0,0,1-.06.67H28.91v.49a5,5,0,0,0,.45,2.37,1.55,1.55,0,0,0,1.47.81,2.48,2.48,0,0,0,2.23-1.26c.21.07.31.16.31.29s-.21.5-.64.81a2.81,2.81,0,0,1-.87.38,4.5,4.5,0,0,1-1.25.16A3,3,0,0,1,28.28,13.1Zm3.88-4A2.18,2.18,0,0,0,31.9,8a1.26,1.26,0,0,0-1.18-.62q-1.51,0-1.76,2.18h3.18A4,4,0,0,0,32.16,9.06Z"/><path class="cls-2" d="M39,6.93a.87.87,0,0,1,.57.17.6.6,0,0,1,.21.48.68.68,0,0,1-.41.7,1.33,1.33,0,0,0-.81-.18,1.91,1.91,0,0,0-1.13.39,1.08,1.08,0,0,0-.54.88v4.16l1.26.07v.34H34.64v-.34l.92-.06v-6L34.46,7.5V7.18L36.94,7l-.08,1.72h.06a2.71,2.71,0,0,1,.88-1.29A2,2,0,0,1,39,6.93Z"/><path class="cls-2" d="M41.39,13.1a3.72,3.72,0,0,1-.88-2.59,3.6,3.6,0,0,1,.93-2.59,3.1,3.1,0,0,1,2.34-1,3.05,3.05,0,0,1,2.11.64,2.27,2.27,0,0,1,.7,1.77,4.12,4.12,0,0,1-.06.67H42v.49a5,5,0,0,0,.45,2.37,1.55,1.55,0,0,0,1.47.81,2.48,2.48,0,0,0,2.23-1.26c.21.07.31.16.31.29s-.21.5-.64.81a2.81,2.81,0,0,1-.87.38,4.5,4.5,0,0,1-1.25.16A3,3,0,0,1,41.39,13.1Zm3.88-4A2.18,2.18,0,0,0,45,8a1.26,1.26,0,0,0-1.18-.62q-1.51,0-1.76,2.18h3.18A4,4,0,0,0,45.27,9.06Z"/><path class="cls-2" d="M50.73,14.14a2.71,2.71,0,0,1-2-.86,3.59,3.59,0,0,1-.83-2.58A3.44,3.44,0,0,1,51.54,7a3.47,3.47,0,0,1,1.64.41V3.88l-1.23-.06V3.5l2.59-.29v10.4l1.19.06V14l-2.48.17,0-1.34h-.08a2.31,2.31,0,0,1-1,1A3.13,3.13,0,0,1,50.73,14.14Zm2.45-2.35V7.94a2.65,2.65,0,0,0-1.67-.52,1.71,1.71,0,0,0-1.71,1,6,6,0,0,0-.38,2.37q0,2.9,1.57,2.9A2.07,2.07,0,0,0,52.52,13,1.89,1.89,0,0,0,53.18,11.79Z"/><path class="cls-2" d="M61.87,3.21v3a20,20,0,0,1-.07,2h.13a2.53,2.53,0,0,1,1-1,3.17,3.17,0,0,1,1.44-.34,2.61,2.61,0,0,1,1.95.8,3.55,3.55,0,0,1,.78,2.55,4,4,0,0,1-.94,2.77,3.44,3.44,0,0,1-2.67,1,3.83,3.83,0,0,1-.9-.13,2.7,2.7,0,0,1-.83-.34l-1.29.45V3.88l-1.23-.06V3.5Zm1.68,10.47a1.79,1.79,0,0,0,.92-.22,1.74,1.74,0,0,0,.6-.56,2.78,2.78,0,0,0,.34-.85A10,10,0,0,0,65.59,10,3.5,3.5,0,0,0,65.16,8a1.38,1.38,0,0,0-1.22-.66A2,2,0,0,0,62.51,8a1.86,1.86,0,0,0-.65,1.22l0,3.89A2.65,2.65,0,0,0,63.55,13.68Z"/><path class="cls-2" d="M70.21,16.79a3.06,3.06,0,0,1-.72.58,1.7,1.7,0,0,1-.87.26,1,1,0,0,1-.69-.23.81.81,0,0,1-.25-.62A1.18,1.18,0,0,1,68,16a1.16,1.16,0,0,0,.88.45,1.52,1.52,0,0,0,1.2-.61,6.65,6.65,0,0,0,1-1.91L68.41,7.55l-.71-.08V7.1h3v.36l-1,.08,2,4.89,1.72-4.7-1.12-.27V7.1H75v.36l-1,.27-2.37,6.2-.39,1q-.14.35-.46.95A4.77,4.77,0,0,1,70.21,16.79Z"/><path class="cls-2" d="M78.77,4.58h3.88v.34L81.43,5v8.44l3.53,0,.66-1.6H86l-.17,2.09h-7v-.34L80,13.47V5l-1.22-.13Z"/><path class="cls-2" d="M87.7,13.1a3.72,3.72,0,0,1-.88-2.59,3.6,3.6,0,0,1,.93-2.59,3.1,3.1,0,0,1,2.34-1,3.05,3.05,0,0,1,2.11.64,2.27,2.27,0,0,1,.7,1.77,4.12,4.12,0,0,1-.06.67H88.33v.49a5,5,0,0,0,.45,2.37,1.55,1.55,0,0,0,1.47.81,2.48,2.48,0,0,0,2.23-1.26c.21.07.31.16.31.29s-.21.5-.64.81a2.81,2.81,0,0,1-.87.38,4.5,4.5,0,0,1-1.25.16A3,3,0,0,1,87.7,13.1Zm3.88-4A2.18,2.18,0,0,0,91.31,8a1.26,1.26,0,0,0-1.18-.62q-1.51,0-1.76,2.18h3.18A4,4,0,0,0,91.58,9.06Z"/><path class="cls-2" d="M95.86,12.53c0,.21.15.36.46.43a17.27,17.27,0,0,0,1.9.23,5,5,0,0,1,2.07.51,1.34,1.34,0,0,1,.63,1.24,2.27,2.27,0,0,1-1,1.86,5.34,5.34,0,0,1-5.07.25A1.61,1.61,0,0,1,94,15.65a1.79,1.79,0,0,1,.38-1.08,2,2,0,0,1,1.11-.72,1.08,1.08,0,0,1-.85-1,.83.83,0,0,1,.43-.71,2.27,2.27,0,0,1,1-.36,2.51,2.51,0,0,1-1.36-.87,2.34,2.34,0,0,1-.48-1.46,2.26,2.26,0,0,1,.8-1.78,3.21,3.21,0,0,1,2.18-.7,4.12,4.12,0,0,1,.85.1,1.1,1.1,0,0,0,.64-.42A1.25,1.25,0,0,0,99,5.88a4.71,4.71,0,0,0,0-.67,1,1,0,0,1,.39-.08.88.88,0,0,1,.39.1.7.7,0,0,1,.38.68,1.06,1.06,0,0,1-.46.85,2,2,0,0,1-1.11.42A2.34,2.34,0,0,1,99.7,8a2.39,2.39,0,0,1,.41,1.38,2.11,2.11,0,0,1-.9,1.82,3.73,3.73,0,0,1-2.22.64,1.56,1.56,0,0,0-.81.22Q95.86,12.31,95.86,12.53Zm-.74,3a1.39,1.39,0,0,0,.61,1.18,2.63,2.63,0,0,0,1.58.44,3.17,3.17,0,0,0,1.74-.49,1.47,1.47,0,0,0,.78-1.23.85.85,0,0,0-.31-.71,1.54,1.54,0,0,0-.74-.28l-1.32-.16Q96.62,14.15,96,14a1.65,1.65,0,0,0-.64.61A1.6,1.6,0,0,0,95.12,15.5Zm2-3.91A1.28,1.28,0,0,0,98.3,11a2.91,2.91,0,0,0,.38-1.57q0-2.17-1.44-2.17a1.3,1.3,0,0,0-1.17.58,2.85,2.85,0,0,0-.39,1.59Q95.68,11.59,97.14,11.59Z"/><path class="cls-2" d="M103.3,14.1a2.16,2.16,0,0,1-1.37-.44,1.48,1.48,0,0,1-.57-1.24,1.74,1.74,0,0,1,1.08-1.61,7.05,7.05,0,0,1,3.06-.53V9.07q0-1.78-1.29-1.78a1.27,1.27,0,0,0-1.06.55,1.53,1.53,0,0,0-.28.94,2.47,2.47,0,0,0,.06.5.68.68,0,0,1-.4.14,1,1,0,0,1-.4-.08.63.63,0,0,1-.45-.64,1.38,1.38,0,0,1,.46-1.06,3,3,0,0,1,2.09-.69,2.76,2.76,0,0,1,1.93.57,2.35,2.35,0,0,1,.6,1.79v4.24l1.18.06v.32l-2.34.17-.13-1.25A2.27,2.27,0,0,1,103.3,14.1Zm-.56-1.68a1,1,0,0,0,.74,1.08,1.32,1.32,0,0,0,.32,0,1.8,1.8,0,0,0,1.11-.46,1.56,1.56,0,0,0,.6-1.22v-1.2Q102.74,10.68,102.74,12.42Z"/><path class="cls-2" d="M112.16,6.94a3.56,3.56,0,0,1,1.51.34,1.48,1.48,0,0,1,.65.56,1.59,1.59,0,0,1,.25.88.68.68,0,0,1-.45.69,1.06,1.06,0,0,1-.38.07.74.74,0,0,1-.41-.14,3.77,3.77,0,0,0,.06-.69,1.32,1.32,0,0,0-.25-.76,1.17,1.17,0,0,0-1-.55q-1.95,0-1.95,3.21a4.84,4.84,0,0,0,.46,2.36,1.57,1.57,0,0,0,1.48.79,2.37,2.37,0,0,0,2.09-1.26c.21.07.31.17.31.3a.87.87,0,0,1-.26.5,2.47,2.47,0,0,1-.9.57,3.67,3.67,0,0,1-1.46.27,3,3,0,0,1-2.33-1,3.7,3.7,0,0,1-.89-2.59,3.55,3.55,0,0,1,1-2.59A3.43,3.43,0,0,1,112.16,6.94Z"/><path class="cls-2" d="M117.62,16.79a3.06,3.06,0,0,1-.72.58,1.7,1.7,0,0,1-.87.26,1,1,0,0,1-.69-.23.81.81,0,0,1-.25-.62,1.18,1.18,0,0,1,.35-.78,1.16,1.16,0,0,0,.88.45,1.52,1.52,0,0,0,1.2-.61,6.65,6.65,0,0,0,1-1.91l-2.69-6.38-.71-.08V7.1h3v.36l-1,.08,2,4.89,1.72-4.7-1.12-.27V7.1h2.69v.36l-1,.27-2.37,6.2-.39,1q-.14.35-.46.95A4.77,4.77,0,0,1,117.62,16.79Z"/><circle class="cls-2" cx="125.62" cy="14.46" r="1.5"/></svg>